<svg xmlns="http://www.w3.org/2000/svg" version="1.1" xmlns:xlink="http://www.w3.org/1999/xlink" xmlns:svgjs="http://svgjs.dev/svgjs" width="2000" height="1247" viewBox="0 0 2000 1247"><g transform="matrix(1,0,0,1,-1.2121212121212466,0.504858299595071)"><svg viewBox="0 0 396 247" data-background-color="#ffffff" preserveAspectRatio="xMidYMid meet" height="1247" width="2000" xmlns="http://www.w3.org/2000/svg" xmlns:xlink="http://www.w3.org/1999/xlink"><g id="tight-bounds" transform="matrix(1,0,0,1,0.2400000000000091,-0.09999999999999432)"><svg viewBox="0 0 395.52 247.2" height="247.2" width="395.52"><g><svg></svg></g><g><svg viewBox="0 0 395.52 247.2" height="247.2" width="395.52"><g><g><path xmlns="http://www.w3.org/2000/svg" d="M279.901 229.896c-16.15 11.536-39.646 17.304-70.487 17.304h-117.95l0-42.742h35.314v14.137h81.223c20.011 0 35.079-3.296 45.202-9.888 1.959-1.275 3.728-2.692 5.308-4.249l41.43 0c-3.903 10.184-10.583 18.663-20.04 25.438zM91.464 0h110.887c28.251 0 50.099 5.65 65.543 16.951 9.469 6.95 16.026 15.547 19.672 25.791l-41.549 0c-1.483-1.478-3.137-2.847-4.962-4.108-9.794-6.686-23.755-10.029-41.882-10.029h-72.395v14.137l-35.314 0z" fill="#8d021f" fill-rule="nonzero" stroke="none" stroke-width="1" stroke-linecap="butt" stroke-linejoin="miter" stroke-miterlimit="10" stroke-dasharray="" stroke-dashoffset="0" font-family="none" font-weight="none" font-size="none" text-anchor="none" style="mix-blend-mode: normal" data-fill-palette-color="tertiary"></path></g></g><g transform="matrix(1,0,0,1,0,57.96528111301082)"><svg viewBox="0 0 395.52 131.26943777397835" height="131.26943777397835" width="395.52"><g><svg viewBox="0 0 628.1891834969317 208.49019248922113" height="131.26943777397835" width="395.52"><g transform="matrix(1,0,0,1,0,28.814491147207846)"><svg viewBox="0 0 395.52 150.86121019480544" height="150.86121019480544" width="395.52"><g><svg viewBox="0 0 395.52 150.86121019480544" height="150.86121019480544" width="395.52"><g><svg viewBox="0 0 395.52 102.42036889692585" height="102.42036889692585" width="395.52"><g transform="matrix(1,0,0,1,0,0)"><svg width="395.52" viewBox="5.25 -35.400001525878906 138.24000549316406 35.80000305175781" height="102.42036889692585" data-palette-color="#8d021f"><path d="M28.8-18.15Q31.85-17.3 33.6-15.08 35.35-12.85 35.35-9.45L35.35-9.45Q35.35-4.9 31.93-2.45 28.5 0 21.95 0L21.95 0 5.25 0 5.25-35 20.95-35Q26.95-35 30.23-32.6 33.5-30.2 33.5-25.95L33.5-25.95Q33.5-23.2 32.23-21.2 30.95-19.2 28.8-18.15L28.8-18.15ZM20.5-30.95L10.25-30.95 10.25-19.75 20.5-19.75Q24.35-19.75 26.43-21.18 28.5-22.6 28.5-25.35L28.5-25.35Q28.5-28.1 26.43-29.53 24.35-30.95 20.5-30.95L20.5-30.95ZM21.75-4.05Q26-4.05 28.15-5.45 30.3-6.85 30.3-9.85L30.3-9.85Q30.3-15.7 21.75-15.7L21.75-15.7 10.25-15.7 10.25-4.05 21.75-4.05ZM43.1 0L43.1-35 48.1-35 48.1-4.35 67.05-4.35 67.05 0 43.1 0ZM87.95 0.4Q82.65 0.4 78.4-1.93 74.15-4.25 71.72-8.35 69.3-12.45 69.3-17.5L69.3-17.5Q69.3-22.55 71.72-26.65 74.15-30.75 78.4-33.08 82.65-35.4 87.95-35.4L87.95-35.4Q93.2-35.4 97.45-33.08 101.7-30.75 104.1-26.68 106.5-22.6 106.5-17.5L106.5-17.5Q106.5-12.4 104.1-8.33 101.7-4.25 97.45-1.93 93.2 0.4 87.95 0.4L87.95 0.4ZM87.95-4.05Q91.8-4.05 94.87-5.8 97.95-7.55 99.72-10.63 101.5-13.7 101.5-17.5L101.5-17.5Q101.5-21.3 99.72-24.38 97.95-27.45 94.87-29.2 91.8-30.95 87.95-30.95L87.95-30.95Q84.1-30.95 80.97-29.2 77.85-27.45 76.07-24.38 74.3-21.3 74.3-17.5L74.3-17.5Q74.3-13.7 76.07-10.63 77.85-7.55 80.97-5.8 84.1-4.05 87.95-4.05L87.95-4.05ZM138.39-6.3L138.39-17.7 143.19-17.7 143.19-4.05Q140.59-1.9 137.14-0.75 133.69 0.4 129.94 0.4L129.94 0.4Q124.64 0.4 120.39-1.93 116.14-4.25 113.72-8.33 111.29-12.4 111.29-17.5L111.29-17.5Q111.29-22.6 113.72-26.7 116.14-30.8 120.42-33.1 124.69-35.4 130.04-35.4L130.04-35.4Q134.24-35.4 137.67-34.02 141.09-32.65 143.49-30L143.49-30 140.39-26.9Q136.19-30.95 130.24-30.95L130.24-30.95Q126.24-30.95 123.07-29.23 119.89-27.5 118.09-24.43 116.29-21.35 116.29-17.5L116.29-17.5Q116.29-13.7 118.09-10.63 119.89-7.55 123.07-5.8 126.24-4.05 130.19-4.05L130.19-4.05Q134.89-4.05 138.39-6.3L138.39-6.3Z" opacity="1" transform="matrix(1,0,0,1,0,0)" fill="#8d021f" class="undefined-text-0" data-fill-palette-color="primary" id="text-0"></path></svg></g></svg></g><g transform="matrix(1,0,0,1,163.310208,126.59935990463651)"><svg viewBox="0 0 232.209792 24.2618502901689" height="24.2618502901689" width="232.209792"><g transform="matrix(1,0,0,1,0,0)"><svg width="232.209792" viewBox="1 -37.900001525878906 461.75 48.25" height="24.2618502901689" data-palette-color="#ff908b"><path d="M12.55 0.2L7.2 0.1 2.95 0.2Q1.85 0.2 1.85-0.6L1.85-0.6Q1.85-1.05 2.5-1.18 3.15-1.3 4.1-1.95 5.05-2.6 5.45-4.08 5.85-5.55 6.3-13.7 6.75-21.85 6.75-25.55 6.75-29.25 5.55-31.38 4.35-33.5 1.65-33.8L1.65-33.8Q1-33.85 1-34.55L1-34.55Q1-34.85 1.35-35.13 1.7-35.4 2.25-35.4L2.25-35.4 4.15-35.35 6.6-35.45Q7.05-35.45 7.65-35.18 8.25-34.9 8.35-34.68 8.45-34.45 8.9-33.93 9.35-33.4 10.1-32.55 10.85-31.7 11.45-30.9L11.45-30.9Q18.25-22.05 29.65-9.55L29.65-9.55Q29.95-9.2 30.38-8.75 30.8-8.3 30.98-8.08 31.15-7.85 31.35-7.65L31.35-7.65Q31.7-7.3 31.9-7.3L31.9-7.3Q32.4-7.3 32.4-10.4L32.4-10.4 32.4-16.25 32.3-26.5 32.3-26.85Q32.3-31.45 30.7-32.7L30.7-32.7Q30.1-33.15 29.7-33.27 29.3-33.4 28.55-33.55L28.55-33.55Q26.5-33.95 26.5-34.68 26.5-35.4 27.45-35.4L27.45-35.4 32.2-35.35Q32.2-35.35 36.7-35.45L36.7-35.45Q37.55-35.45 37.88-35.27 38.2-35.1 38.2-34.75 38.2-34.4 37.9-34.2L37.9-34.2Q37.5-33.95 36.45-33.6L36.45-33.6Q34.8-32.7 34.8-27.95L34.8-27.95 34.8-26.05 34.25-1.3 34.25-0.3Q34.25 0.85 33.55 0.85L33.55 0.85Q33.1 0.85 32.75 0.5L32.75 0.5Q16.15-18.75 12.93-22.38 9.7-26 9.35-26L9.35-26Q8.85-26 8.85-21.93 8.85-17.85 8.65-12.38 8.45-6.9 8.45-6.4L8.45-6.4Q8.45-4.15 9.22-2.98 10-1.8 10.9-1.65 11.8-1.5 12.58-1.33 13.35-1.15 13.35-0.63 13.35-0.1 13.18 0.05 13 0.2 12.55 0.2L12.55 0.2ZM52.32 0.9Q47.2 0.9 44.17-2.38 41.15-5.65 41.15-10.2 41.15-14.75 44.27-18.15 47.4-21.55 52.52-21.55 57.65-21.55 61.12-18.6 64.6-15.65 64.6-10.4 64.6-5.15 61.02-2.13 57.45 0.9 52.32 0.9ZM51.75-20.2Q49.15-20.2 47.12-18.15 45.1-16.1 45.1-11.4 45.1-6.7 47.85-3.65 50.6-0.6 53.77-0.6 56.95-0.6 58.9-2.78 60.85-4.95 60.85-9.15 60.85-13.35 58.45-16.78 56.05-20.2 51.75-20.2L51.75-20.2ZM69.45-18.55L69.45-18.55 68.5-18.5Q67.65-18.5 67.65-19.2L67.65-19.2Q67.65-19.7 68.1-20.05L68.1-20.05Q70-21.3 71.9-23.8L71.9-23.8Q72.7-24.95 73.17-25.48 73.65-26 74.15-26 74.65-26 74.65-24.85L74.65-24.85Q74.65-24.85 74.45-22L74.45-22Q74.45-21.3 74.72-21.15 75-21 76.5-21L76.5-21 78.25-21Q80.5-21 81-21.25L81-21.25Q81.9-21.7 82.1-21.7L82.1-21.7Q82.6-21.7 82.6-21.15L82.6-21.15Q82.6-20.75 81.95-19.58 81.3-18.4 81-18.4L81-18.4Q78.75-18.4 77.85-18.5 76.95-18.6 76.65-18.63 76.35-18.65 76.12-18.68 75.9-18.7 75.8-18.7L75.8-18.7 75.7-18.75Q74.75-18.75 74.47-18.45 74.2-18.15 74.2-17.1L74.2-17.1 74-7.8Q74-4.55 74.82-3.28 75.65-2 78.3-2L78.3-2Q79.35-2 80.62-2.48 81.9-2.95 82-2.95L82-2.95Q82.5-2.95 82.5-2.3 82.5-1.65 80.77-0.58 79.05 0.5 77.05 0.5L77.05 0.5Q70.3 0.5 70.3-5.35L70.3-5.35 70.3-6.1 70.5-17.75Q70.5-18.25 70.3-18.4 70.1-18.55 69.45-18.55ZM89.99-0.25L89.99-0.25 86.44 0Q85.19 0 85.14-0.15 85.09-0.3 85.09-0.5L85.09-0.5Q85.09-1 85.69-1.15L85.69-1.15Q87.14-1.55 87.57-2.43 87.99-3.3 87.99-5L87.99-5 88.19-22.05 88.19-24.5Q88.19-31.3 87.89-32.8 87.59-34.3 86.09-34.3L86.09-34.3 85.44-34.3 85.24-34.35Q84.39-34.35 84.39-34.8 84.39-35.25 84.92-35.52 85.44-35.8 86.42-36.05 87.39-36.3 89.19-37.1 90.99-37.9 91.44-37.9L91.44-37.9Q92.09-37.9 92.09-36.75L92.09-36.75Q92.09-36.5 91.92-35.55 91.74-34.6 91.72-31.88 91.69-29.15 91.62-26.03 91.54-22.9 91.49-21.8L91.49-21.8Q91.39-19.7 91.39-18.85 91.39-18 91.79-18L91.79-18Q91.89-18 92.82-18.93 93.74-19.85 95.37-20.78 96.99-21.7 98.84-21.7L98.84-21.7Q102.89-21.7 105.14-19.3 107.39-16.9 107.39-11.85L107.39-11.85 107.39-4.6Q107.39-3.25 107.89-2.5 108.39-1.75 109.04-1.7L109.04-1.7Q111.74-1.45 111.74-0.65 111.74 0.15 110.19 0.15L110.19 0.15 105.99-0.1 102.14 0.05Q100.99 0.05 100.99-0.45L100.99-0.45Q100.99-1.35 102.34-1.35L102.34-1.35Q102.84-1.35 103.27-1.9 103.69-2.45 103.69-3.6L103.69-3.6 103.74-4.9 103.79-11.9Q103.79-14.95 101.94-17.18 100.09-19.4 97.67-19.4 95.24-19.4 92.74-17.45L92.74-17.45Q91.84-16.75 91.59-15.18 91.34-13.6 91.34-8.2L91.34-8.2 91.34-7.05Q91.34-4.8 91.69-3.4L91.69-3.4Q92.24-1.45 94.44-1.3L94.44-1.3Q95.14-1.25 95.52-1.13 95.89-1 95.89-0.6L95.89-0.6Q95.89 0 95.34 0L95.34 0 94.04-0.05Q92.74-0.1 91.42-0.18 90.09-0.25 89.99-0.25ZM124.24 0.3L120.69 0.2 117.14 0.3Q115.14 0.3 115.14-0.38 115.14-1.05 115.89-1.3L115.89-1.3Q115.94-1.3 116.09-1.35L116.09-1.35Q117.24-1.75 117.59-2.55 117.94-3.35 117.94-10.3L117.94-10.3 117.94-14.7Q117.94-16.15 117.59-17 117.24-17.85 116.94-18.05 116.64-18.25 115.92-18.38 115.19-18.5 114.87-18.63 114.54-18.75 114.54-19.03 114.54-19.3 114.67-19.45 114.79-19.6 115.17-19.78 115.54-19.95 115.94-20.1L115.94-20.1Q117.34-20.5 118.24-20.9 119.14-21.3 119.62-21.5 120.09-21.7 120.24-21.8L120.24-21.8Q120.59-21.95 121.09-21.95L121.09-21.95Q121.84-21.95 121.84-21L121.84-21 121.54-18.6 121.54-4.9Q121.54-3.4 122.02-2.55 122.49-1.7 123.02-1.5 123.54-1.3 124.24-1.25 124.94-1.2 125.14-1.2L125.14-1.2Q125.84-1.1 125.84-0.5L125.84-0.5Q125.84 0.35 124.99 0.35L124.99 0.35 124.24 0.3ZM119.84-26.65Q118.84-26.65 118.12-27.7 117.39-28.75 117.39-29.43 117.39-30.1 118.27-31.18 119.14-32.25 119.92-32.25 120.69-32.25 121.44-31.23 122.19-30.2 122.19-29.4 122.19-28.6 121.24-27.63 120.29-26.65 119.84-26.65L119.84-26.65ZM139.34 0L139.34 0 135.69-0.2Q134.39-0.2 132.24-0.1L132.24-0.1 130.09 0Q129.34 0 129.34-0.45 129.34-0.9 129.59-1 129.84-1.1 130.21-1.15 130.59-1.2 130.94-1.45L130.94-1.45Q131.89-2.05 131.99-5.08 132.09-8.1 132.09-9.05L132.09-9.05 132.09-16.25Q132.09-17.85 131.51-18.4 130.94-18.95 129.94-18.95L129.94-18.95 129.44-18.95Q128.49-18.95 128.49-19.5L128.49-19.5Q128.49-20 129.56-20.15 130.64-20.3 131.26-20.48 131.89-20.65 132.91-21.08 133.94-21.5 134.56-21.8 135.19-22.1 135.39-22.1L135.39-22.1 135.49-22.1Q135.94-22.1 135.94-21.5L135.94-21.5 135.84-19.35Q135.84-18.05 136.04-18.05 136.24-18.05 136.44-18.3L136.44-18.3Q137.19-19.35 138.44-20.1L138.44-20.1Q140.69-21.5 142.74-21.5 144.79-21.5 146.39-20.88 147.99-20.25 148.89-19.33 149.79-18.4 150.39-17.2L150.39-17.2Q151.39-15.2 151.39-13.1L151.39-13.1 151.39-12.6 151.44-9.95 151.44-4.85Q151.44-2.95 151.96-2.23 152.49-1.5 154.49-1.2L154.49-1.2Q155.49-1.05 155.49-0.45L155.49-0.45Q155.49 0.05 154.49 0.05L154.49 0.05 150.39-0.2 146.54 0Q145.54 0 145.54-0.65L145.54-0.65Q145.54-1.1 146.14-1.25L146.14-1.25 146.79-1.4Q147.89-1.75 147.89-4.75L147.89-4.75 147.89-11.5Q147.89-15.35 145.99-17.32 144.09-19.3 141.69-19.3 139.29-19.3 137.69-18.15 136.09-17 135.74-16 135.39-15 135.39-8.35L135.39-8.35 135.39-6.45Q135.39-3.95 135.91-2.75 136.44-1.55 138.24-1.4L138.24-1.4Q138.74-1.4 139.51-1.23 140.29-1.05 140.29-0.65L140.29-0.65Q140.29 0 139.34 0ZM163.04 9.93Q161.09 9.5 159.51 8.2 157.94 6.9 157.94 5.2 157.94 3.5 158.84 2.58 159.74 1.65 160.64 1.2 161.54 0.75 161.54 0.63 161.54 0.5 161.29 0.3 161.04 0.1 160.69-0.15L160.69-0.15Q159.89-0.8 159.89-2.33 159.89-3.85 160.54-4.95 161.19-6.05 161.84-6.6 162.49-7.15 162.49-7.33 162.49-7.5 161.96-7.95 161.44-8.4 160.79-8.97 160.14-9.55 159.61-10.88 159.09-12.2 159.09-13.68 159.09-15.15 159.46-16.32 159.84-17.5 160.71-18.78 161.59-20.05 163.41-20.85 165.24-21.65 167.46-21.65 169.69-21.65 171.09-21.15 172.49-20.65 173.16-20.15 173.84-19.65 174.14-19.65 174.44-19.65 176.59-20.55L176.59-20.55Q177.29-20.85 177.64-21.9 177.99-22.95 178.39-22.95L178.39-22.95Q179.04-22.95 179.04-22.55L179.04-22.55Q179.04-21.35 178.69-19.98 178.34-18.6 177.84-17.82 177.34-17.05 175.89-16.45L175.89-16.45Q176.44-14.95 176.44-13.95L176.44-13.95Q176.44-10.75 174.04-8.55 171.64-6.35 168.19-6.35L168.19-6.35Q166.89-6.35 165.71-6.58 164.54-6.8 164.31-6.8 164.09-6.8 163.69-6.7 163.29-6.6 162.69-6 162.09-5.4 162.09-4.35L162.09-4.35Q162.09-2.65 163.64-2.2 165.19-1.75 168.79-1.75L168.79-1.75 171.09-1.75Q178.34-1.75 178.34 2.65L178.34 2.65Q178.34 4.2 177.99 5L177.99 5Q177.04 7.45 174.09 8.9 171.14 10.35 167.24 10.35L167.24 10.35Q164.99 10.35 163.04 9.93ZM160.84 4.55L160.84 4.55Q160.84 6.75 162.69 7.88 164.54 9 167.44 9 170.34 9 172.81 7.73 175.29 6.45 175.29 4.45L175.29 4.45Q175.29 2.65 173.54 2.2L173.54 2.2Q172.19 1.9 169.74 1.9L169.74 1.9 169.29 1.9Q167.69 1.9 165.39 1.55L165.39 1.55 163.14 1.2Q162.64 1.2 161.74 2.2 160.84 3.2 160.84 4.55ZM167.61-20.55Q165.49-20.55 164.19-18.98 162.89-17.4 162.89-14.45 162.89-11.5 164.31-9.5 165.74-7.5 167.94-7.5 170.14-7.5 171.34-9.22 172.54-10.95 172.54-13.6 172.54-16.25 171.14-18.4 169.74-20.55 167.61-20.55ZM202.53 0.3L198.98 0.2 195.43 0.3Q193.43 0.3 193.43-0.38 193.43-1.05 194.18-1.3L194.18-1.3Q194.23-1.3 194.38-1.35L194.38-1.35Q195.53-1.75 195.88-2.55 196.23-3.35 196.23-10.3L196.23-10.3 196.23-14.7Q196.23-16.15 195.88-17 195.53-17.85 195.23-18.05 194.93-18.25 194.21-18.38 193.48-18.5 193.16-18.63 192.83-18.75 192.83-19.03 192.83-19.3 192.96-19.45 193.08-19.6 193.46-19.78 193.83-19.95 194.23-20.1L194.23-20.1Q195.63-20.5 196.53-20.9 197.43-21.3 197.91-21.5 198.38-21.7 198.53-21.8L198.53-21.8Q198.88-21.95 199.38-21.95L199.38-21.95Q200.13-21.95 200.13-21L200.13-21 199.83-18.6 199.83-4.9Q199.83-3.4 200.31-2.55 200.78-1.7 201.31-1.5 201.83-1.3 202.53-1.25 203.23-1.2 203.43-1.2L203.43-1.2Q204.13-1.1 204.13-0.5L204.13-0.5Q204.13 0.35 203.28 0.35L203.28 0.35 202.53 0.3ZM198.13-26.65Q197.13-26.65 196.41-27.7 195.68-28.75 195.68-29.43 195.68-30.1 196.56-31.18 197.43-32.25 198.21-32.25 198.98-32.25 199.73-31.23 200.48-30.2 200.48-29.4 200.48-28.6 199.53-27.63 198.58-26.65 198.13-26.65L198.13-26.65ZM221.63-20.05L221.63-20.05 221.83-17.05Q221.83-16.2 221.63-15.9 221.43-15.6 221.05-15.6 220.68-15.6 220.25-16.32 219.83-17.05 219.3-17.9 218.78-18.75 217.6-19.48 216.43-20.2 214.93-20.2 213.43-20.2 212.48-19.48 211.53-18.75 211.53-17.9 211.53-17.05 211.68-16.53 211.83-16 212.2-15.6 212.58-15.2 212.85-14.93 213.13-14.65 213.78-14.35 214.43-14.05 214.75-13.93 215.08-13.8 215.83-13.5L215.83-13.5Q220.38-11.9 221.68-10.38 222.98-8.85 222.98-6 222.98-3.15 220.33-0.75L220.33-0.75Q218.53 0.8 215.38 0.8L215.38 0.8Q213.23 0.8 210.58-0.25L210.58-0.25Q209.83-0.55 209.7-0.58 209.58-0.6 209.3-0.7 209.03-0.8 208.9-0.83 208.78-0.85 208.58-0.95 208.38-1.05 208.3-1.13 208.23-1.2 208.13-1.35L208.13-1.35Q207.98-1.6 207.98-2.15L207.98-2.15 207.98-6.5Q207.98-7.05 208.2-7.43 208.43-7.8 208.83-7.8 209.23-7.8 209.4-7.58 209.58-7.35 209.73-6.65 209.88-5.95 210.03-5.65L210.03-5.65Q211.88-1.05 215.23-1.05L215.23-1.05Q216.78-1.05 218.18-1.88 219.58-2.7 219.58-4.48 219.58-6.25 218.43-7.35 217.28-8.45 215.63-9.08 213.98-9.7 212.33-10.38 210.68-11.05 209.53-12.38 208.38-13.7 208.38-15.7L208.38-15.7Q208.38-18.5 210.63-20.2 212.88-21.9 215.58-21.9 218.28-21.9 219.68-21.48 221.08-21.05 221.35-20.7 221.63-20.35 221.63-20.05ZM241.47-17.25L241.47-20.1 241.52-25.5 241.52-27.8Q241.52-30 241.35-31.33 241.17-32.65 240-33.3 238.82-33.95 237.67-34 236.52-34.05 236.52-34.77 236.52-35.5 237.92-35.5L237.92-35.5 243.57-35.3 247.97-35.4Q249.32-35.4 249.32-34.7L249.32-34.7Q249.32-34.3 247.02-33.35L247.02-33.35Q245.42-32.7 245.42-27.6L245.42-27.6 245.27-9.1Q245.27-4.9 246.45-3.2 247.62-1.5 248.92-1.5L248.92-1.5 249.92-1.45Q250.27-1.45 250.62-1.28 250.97-1.1 250.97-0.7L250.97-0.7Q250.97 0 249.72 0L249.72 0 244.97-0.2 239.47 0.05Q237.22 0.05 237.22-0.7L237.22-0.7Q237.22-1.4 238.77-1.6L238.77-1.6Q239.37-1.65 240.02-2.23 240.67-2.8 240.85-3.53 241.02-4.25 241.25-9.58 241.47-14.9 241.47-17.25L241.47-17.25ZM256.87-10.4L256.87-10.4 256.82-16.5Q256.82-17.7 256.3-18.2 255.77-18.7 255.12-18.7L255.12-18.7Q253.47-18.6 253.47-19.4L253.47-19.4Q253.47-19.85 254.07-20.08 254.67-20.3 255.87-20.55 257.07-20.8 257.62-21.03 258.17-21.25 258.52-21.45 258.87-21.65 259.02-21.7L259.02-21.7Q259.47-21.9 260.07-21.9 260.67-21.9 260.67-20.45L260.67-20.45 260.42-18.35Q260.42-17.75 260.72-17.75L260.72-17.75Q260.77-17.75 261.05-18.13 261.32-18.5 261.8-19.03 262.27-19.55 262.97-20.1L262.97-20.1Q264.67-21.35 267-21.35 269.32-21.35 270.67-20.73 272.02-20.1 272.55-19.38 273.07-18.65 273.42-18.03 273.77-17.4 273.85-17.4 273.92-17.4 274.8-18.43 275.67-19.45 277.3-20.48 278.92-21.5 280.72-21.5L280.72-21.5Q284.37-21.5 286.35-19.35 288.32-17.2 288.65-14.13 288.97-11.05 288.97-7.65L288.97-7.65 288.97-6.05Q288.97-3.8 289.22-2.8 289.47-1.8 290.37-1.5L290.37-1.5Q290.42-1.5 290.82-1.43 291.22-1.35 291.52-1.3L291.52-1.3Q292.27-1.15 292.27-0.55L292.27-0.55Q292.27 0.2 290.62 0.2L290.62 0.2 287.32 0 283.72 0.2Q282.52 0.2 282.52-0.33 282.52-0.85 283.57-1.25 284.62-1.65 284.82-2.1L284.82-2.1Q285.02-2.65 285.02-4.4L285.02-4.4 285.02-5.2 284.97-10.5 284.82-13.8Q284.82-14.35 284.67-14.83 284.52-15.3 284.5-15.55 284.47-15.8 284.22-16.15 283.97-16.5 283.92-16.6L283.92-16.6Q283.72-17 283.12-17.6L283.12-17.6Q281.82-19.15 279.37-19.15L279.37-19.15Q278.22-19.15 276.97-18.55 275.72-17.95 274.97-17.32 274.22-16.7 274.22-16.5 274.22-16.3 274.32-15.75L274.32-15.75Q274.52-14.1 274.52-10.1L274.52-10.1 274.52-5.85Q274.52-3.55 275.17-2.48 275.82-1.4 277.97-1.1L277.97-1.1Q278.47-1.05 278.67-0.78 278.87-0.5 278.87-0.3L278.87-0.3Q278.87 0.25 277.92 0.25L277.92 0.25 274.27 0 269.72 0.25Q268.62 0.25 268.62-0.4L268.62-0.4Q268.62-0.75 268.82-0.93 269.02-1.1 269.55-1.3 270.07-1.5 270.25-1.6 270.42-1.7 270.67-2.45 270.92-3.2 270.92-3.95L270.92-3.95 270.92-4.9 270.97-6.9 270.97-9.95 270.92-12.6 270.87-13.1Q270.87-15.75 269.52-17.35 268.17-18.95 265.92-18.95 263.67-18.95 262.02-17.85 260.37-16.75 260.37-15.3L260.37-15.3 260.37-5.2Q260.37-3.4 261.02-2.45 261.67-1.5 262.47-1.38 263.27-1.25 263.92-1.1 264.57-0.95 264.57-0.6L264.57-0.6Q264.57-0.15 264.42 0 264.27 0.15 263.52 0.15L263.52 0.15 259.32 0 255.37 0.15Q254.17 0.15 254.17-0.6L254.17-0.6Q254.17-1.15 255.07-1.3L255.07-1.3Q255.42-1.35 255.82-1.73 256.22-2.1 256.55-3.15 256.87-4.2 256.87-10.4ZM297.77 4.1L297.77 3.1 297.92-10.7 297.92-11.8Q297.92-15.95 297.54-17.32 297.17-18.7 295.57-18.7L295.57-18.7Q294.72-18.7 294.52-18.82 294.32-18.95 294.32-19.23 294.32-19.5 294.74-19.65 295.17-19.8 296.47-20.2 297.77-20.6 299.47-21.43 301.17-22.25 301.32-22.25L301.32-22.25Q301.97-22.25 301.97-21.6L301.97-21.6 301.77-18.65Q301.77-18.25 301.87-18.25 301.97-18.25 302.34-18.6 302.72-18.95 303.32-19.48 303.92-20 304.77-20.5L304.77-20.5Q306.72-21.7 309.42-21.7L309.42-21.7Q313.87-21.7 316.22-18.78 318.57-15.85 318.57-11.43 318.57-7 315.64-3.28 312.72 0.45 307.82 0.45L307.82 0.45Q305.52 0.45 304.09-0.03 302.67-0.5 302.12-0.98 301.57-1.45 301.39-1.45 301.22-1.45 301.22-1.05L301.22-1.05 301.22 5.1Q301.22 6.05 302.07 7.45L302.07 7.45Q302.62 8.35 303.74 8.5 304.87 8.65 305.64 8.7 306.42 8.75 306.42 9.38 306.42 10 304.72 10L304.72 10Q304.42 10 303.12 9.9 301.82 9.8 299.52 9.8L299.52 9.8 296.37 9.95Q295.27 9.95 294.97 9.85 294.67 9.75 294.67 9.38 294.67 9 295.14 8.8 295.62 8.6 296.22 8.45 296.82 8.3 297.29 7.23 297.77 6.15 297.77 4.1L297.77 4.1ZM301.22-9.6L301.22-9.6 301.27-7.1Q301.27-5.35 302.02-4.1 302.77-2.85 303.97-2.2L303.97-2.2Q306.17-1.05 308.62-1.05L308.62-1.05Q311.87-1.05 313.59-3.43 315.32-5.8 315.32-9.5 315.32-13.2 313.19-16.2 311.07-19.2 307.47-19.2L307.47-19.2Q304.92-19.2 302.92-17.6L302.92-17.6Q301.87-16.8 301.54-15.43 301.22-14.05 301.22-9.6ZM333.64 0.9Q328.52 0.9 325.49-2.38 322.47-5.65 322.47-10.2 322.47-14.75 325.59-18.15 328.72-21.55 333.84-21.55 338.97-21.55 342.44-18.6 345.92-15.65 345.92-10.4 345.92-5.15 342.34-2.13 338.77 0.9 333.64 0.9ZM333.07-20.2Q330.47-20.2 328.44-18.15 326.42-16.1 326.42-11.4 326.42-6.7 329.17-3.65 331.92-0.6 335.09-0.6 338.27-0.6 340.22-2.78 342.17-4.95 342.17-9.15 342.17-13.35 339.77-16.78 337.37-20.2 333.07-20.2L333.07-20.2ZM364.26-20.05L364.26-20.05 364.46-17.05Q364.46-16.2 364.26-15.9 364.06-15.6 363.69-15.6 363.31-15.6 362.89-16.32 362.46-17.05 361.94-17.9 361.41-18.75 360.24-19.48 359.06-20.2 357.56-20.2 356.06-20.2 355.11-19.48 354.16-18.75 354.16-17.9 354.16-17.05 354.31-16.53 354.46-16 354.84-15.6 355.21-15.2 355.49-14.93 355.76-14.65 356.41-14.35 357.06-14.05 357.39-13.93 357.71-13.8 358.46-13.5L358.46-13.5Q363.01-11.9 364.31-10.38 365.61-8.85 365.61-6 365.61-3.15 362.96-0.75L362.96-0.75Q361.16 0.8 358.01 0.8L358.01 0.8Q355.86 0.8 353.21-0.25L353.21-0.25Q352.46-0.55 352.34-0.58 352.21-0.6 351.94-0.7 351.66-0.8 351.54-0.83 351.41-0.85 351.21-0.95 351.01-1.05 350.94-1.13 350.86-1.2 350.76-1.35L350.76-1.35Q350.61-1.6 350.61-2.15L350.61-2.15 350.61-6.5Q350.61-7.05 350.84-7.43 351.06-7.8 351.46-7.8 351.86-7.8 352.04-7.58 352.21-7.35 352.36-6.65 352.51-5.95 352.66-5.65L352.66-5.65Q354.51-1.05 357.86-1.05L357.86-1.05Q359.41-1.05 360.81-1.88 362.21-2.7 362.21-4.48 362.21-6.25 361.06-7.35 359.91-8.45 358.26-9.08 356.61-9.7 354.96-10.38 353.31-11.05 352.16-12.38 351.01-13.7 351.01-15.7L351.01-15.7Q351.01-18.5 353.26-20.2 355.51-21.9 358.21-21.9 360.91-21.9 362.31-21.48 363.71-21.05 363.99-20.7 364.26-20.35 364.26-20.05ZM383.91-20.05L383.91-20.05 384.11-17.05Q384.11-16.2 383.91-15.9 383.71-15.6 383.34-15.6 382.96-15.6 382.54-16.32 382.11-17.05 381.59-17.9 381.06-18.75 379.89-19.48 378.71-20.2 377.21-20.2 375.71-20.2 374.76-19.48 373.81-18.75 373.81-17.9 373.81-17.05 373.96-16.53 374.11-16 374.49-15.6 374.86-15.2 375.14-14.93 375.41-14.65 376.06-14.35 376.71-14.05 377.04-13.93 377.36-13.8 378.11-13.5L378.11-13.5Q382.66-11.9 383.96-10.38 385.26-8.85 385.26-6 385.26-3.15 382.61-0.75L382.61-0.75Q380.81 0.8 377.66 0.8L377.66 0.8Q375.51 0.8 372.86-0.25L372.86-0.25Q372.11-0.55 371.99-0.58 371.86-0.6 371.59-0.7 371.31-0.8 371.19-0.83 371.06-0.85 370.86-0.95 370.66-1.05 370.59-1.13 370.51-1.2 370.41-1.35L370.41-1.35Q370.26-1.6 370.26-2.15L370.26-2.15 370.26-6.5Q370.26-7.05 370.49-7.43 370.71-7.8 371.11-7.8 371.51-7.8 371.69-7.58 371.86-7.35 372.01-6.65 372.16-5.95 372.31-5.65L372.31-5.65Q374.16-1.05 377.51-1.05L377.51-1.05Q379.06-1.05 380.46-1.88 381.86-2.7 381.86-4.48 381.86-6.25 380.71-7.35 379.56-8.45 377.91-9.08 376.26-9.7 374.61-10.38 372.96-11.05 371.81-12.38 370.66-13.7 370.66-15.7L370.66-15.7Q370.66-18.5 372.91-20.2 375.16-21.9 377.86-21.9 380.56-21.9 381.96-21.48 383.36-21.05 383.64-20.7 383.91-20.35 383.91-20.05ZM398.66 0.3L395.11 0.2 391.56 0.3Q389.56 0.3 389.56-0.38 389.56-1.05 390.31-1.3L390.31-1.3Q390.36-1.3 390.51-1.35L390.51-1.35Q391.66-1.75 392.01-2.55 392.36-3.35 392.36-10.3L392.36-10.3 392.36-14.7Q392.36-16.15 392.01-17 391.66-17.85 391.36-18.05 391.06-18.25 390.33-18.38 389.61-18.5 389.28-18.63 388.96-18.75 388.96-19.03 388.96-19.3 389.08-19.45 389.21-19.6 389.58-19.78 389.96-19.95 390.36-20.1L390.36-20.1Q391.76-20.5 392.66-20.9 393.56-21.3 394.03-21.5 394.51-21.7 394.66-21.8L394.66-21.8Q395.01-21.95 395.51-21.95L395.51-21.95Q396.26-21.95 396.26-21L396.26-21 395.96-18.6 395.96-4.9Q395.96-3.4 396.43-2.55 396.91-1.7 397.43-1.5 397.96-1.3 398.66-1.25 399.36-1.2 399.56-1.2L399.56-1.2Q400.26-1.1 400.26-0.5L400.26-0.5Q400.26 0.35 399.41 0.35L399.41 0.35 398.66 0.3ZM394.26-26.65Q393.26-26.65 392.53-27.7 391.81-28.75 391.81-29.43 391.81-30.1 392.68-31.18 393.56-32.25 394.33-32.25 395.11-32.25 395.86-31.23 396.61-30.2 396.61-29.4 396.61-28.6 395.66-27.63 394.71-26.65 394.26-26.65L394.26-26.65ZM404.36 0.2L404.36 0.2 404.56-3.9Q404.56-5.55 404.78-9.8 405-14.05 405-17.1L405-17.1 405-29.45Q405-34 402.75-34L402.75-34 402.25-34Q401.46-34 401.46-34.5 401.46-35 401.96-35.35 402.46-35.7 403.56-36.08 404.66-36.45 404.86-36.52 405.06-36.6 405.86-37L405.86-37Q407.56-37.8 407.86-37.8 408.16-37.8 408.41-37.55 408.66-37.3 408.66-36.9L408.66-36.9 408.66-35.9 408.61-29.8 408.61-20.55Q408.61-18.75 408.96-18.75L408.96-18.75Q409.16-18.75 409.56-19.28 409.96-19.8 410.53-20.43 411.11-21.05 412.75-21.58 414.41-22.1 416.86-22.1L416.86-22.1Q421.31-22.1 423.78-19 426.25-15.9 426.25-11.75L426.25-11.75Q426.25-9.4 425.03-6.33 423.81-3.25 421.71-1.65L421.71-1.65Q418.81 0.55 414.75 0.55L414.75 0.55Q412.71 0.55 410.96-0.18 409.21-0.9 408.33-1.63 407.46-2.35 407.41-2.35L407.41-2.35Q407.21-2.35 406.43-0.75 405.66 0.85 404.96 0.85L404.96 0.85Q404.36 0.85 404.36 0.2ZM408.61-15.65L408.61-6.6Q408.61-5.25 410.58-3.25 412.56-1.25 415.96-1.25 419.36-1.25 421.18-3.58 423-5.9 423-9.55 423-13.2 420.63-16.3 418.25-19.4 414.21-19.4L414.21-19.4Q411.86-19.4 410.23-18.05 408.61-16.7 408.61-15.65L408.61-15.65ZM432.5-5.9L432.5-9.6 432.7-30.85Q432.7-32 432.33-32.93 431.95-33.85 431.5-34.05 431.05-34.25 429.5-34.25L429.5-34.25Q428.95-34.25 428.95-34.6 428.95-34.95 429.03-35.1 429.1-35.25 429.35-35.38 429.6-35.5 429.95-35.6L429.95-35.6Q431.4-35.9 432.95-36.65L432.95-36.65Q435.4-37.8 436.15-37.8L436.15-37.8Q436.75-37.8 436.75-36.85L436.75-36.85Q436.75-36.65 436.65-35.7L436.65-35.7Q436.35-32.75 436.35-29.25L436.35-29.25 436.35-26.45 436.25-19.8 436.25-4.9Q436.25-3.85 436.43-3.18 436.6-2.5 437.58-1.88 438.55-1.25 440.3-1.25L440.3-1.25Q440.55-1.25 440.75-1 440.95-0.75 440.95-0.5L440.95-0.5Q440.95 0.2 439.4 0.2L439.4 0.2 434.35-0.15Q433.05-0.15 431.88 0.05 430.7 0.25 430.33 0.25 429.95 0.25 429.73 0.08 429.5-0.1 429.5-0.38 429.5-0.65 429.73-0.83 429.95-1 430.45-1.1L430.45-1.1Q431.95-1.5 432.25-2.33 432.55-3.15 432.55-4.6L432.55-4.6 432.5-5.9ZM453.9 0.95Q449.5 0.95 446.43-1.75 443.35-4.45 443.35-9.58 443.35-14.7 446.18-18.15 449-21.6 453.5-21.6L453.5-21.6Q455.6-21.6 457.33-20.85 459.05-20.1 460-19.03 460.95-17.95 461.6-16.75L461.6-16.75Q462.7-14.7 462.7-13.65L462.7-13.65Q462.7-12.75 460.65-12.75L460.65-12.75 447.8-12.75Q447.4-12.75 447.33-12.68 447.25-12.6 447.25-12.2L447.25-12.2Q447.25-7.5 449.78-4.8 452.3-2.1 455.7-2.1L455.7-2.1Q457.8-2.1 459.98-3.23 462.15-4.35 462.25-4.35L462.25-4.35Q462.75-4.35 462.75-3.9L462.75-3.9Q462.75-3.3 461.65-2.27 460.55-1.25 459.55-0.6L459.55-0.6Q457.15 0.95 453.9 0.95L453.9 0.95ZM448.2-13.95L448.2-13.95 457-14.25Q457.7-14.25 457.88-14.38 458.05-14.5 458.05-14.85L458.05-14.85Q458.05-16.35 456.65-18.35 455.25-20.35 452.75-20.35 450.25-20.35 448.9-18.38 447.55-16.4 447.55-14.65L447.55-14.65Q447.55-13.95 448.2-13.95Z" opacity="1" transform="matrix(1,0,0,1,0,0)" fill="#ff908b" class="undefined-text-1" data-fill-palette-color="secondary" id="text-1"></path></svg></g></svg></g></svg></g></svg></g><g transform="matrix(1,0,0,1,419.6989910077107,0)"><svg viewBox="0 0 208.49019248922113 208.49019248922113" height="208.49019248922113" width="208.49019248922113"><g data-palette-color="#ff5858"><rect width="56.98731928038711" height="208.49019248922113" fill="#ff5858" stroke="transparent" data-fill-palette-color="accent" x="0" fill-opacity="1"></rect><rect width="56.98731928038711" height="208.49019248922113" fill="#ff5858" stroke="transparent" data-fill-palette-color="accent" x="69.49673082974039" fill-opacity="0.75"></rect><rect width="56.98731928038711" height="208.49019248922113" fill="#ff5858" stroke="transparent" data-fill-palette-color="accent" x="138.99346165948077" fill-opacity="0.5"></rect></g></svg></g></svg></g></svg></g></svg></g><defs></defs></svg><rect width="395.52" height="247.2" fill="none" stroke="none" visibility="hidden"></rect></g></svg></g></svg>